<?xml version="1.0" encoding="utf-8"?>
<!-- Generator: Adobe Illustrator 22.1.0, SVG Export Plug-In . SVG Version: 6.00 Build 0)  -->
<svg version="1.1" id="Layer_1" xmlns="http://www.w3.org/2000/svg" xmlns:xlink="http://www.w3.org/1999/xlink" x="0px" y="0px"
     width="544.2px" height="544.2px" viewBox="0 0 544.2 544.2" style="enable-background:new 0 0 544.2 544.2;" xml:space="preserve"
    >
<g>
    <path style="fill:#333F4C;" d="M272.1,0C2.1,0,0,121.8,0,272.1s2.1,272.1,272.1,272.1s272.1-121.8,272.1-272.1S542.1,0,272.1,0z"/>
</g>
<path style="fill:#FFFFFF;" d="M432.8,231.3c0,0-23.6-6.5-55.3-8.4c-31.8-1.9-67.1,2.8-67.1,2.8c-12.4,1.9-24.9,11.8-20.8,24.5l1.7,5.4h-38.4
    l1.7-5.4c4.1-12.7-7.4-20.5-20.8-24.5c0,0-35.3-4.7-67.1-2.8c-31.8,1.9-55.3,8.4-55.3,8.4c-14.5,2.2-24,15.3-20.9,28.8
    c4.1,17.8,7.9,39.9,9.6,44.6c5.1,14.4,20.3,14.8,33.8,16.4c16.4,1.9,61.1,0.2,81-2.9c18.5-2.9,24.6-21.2,24.6-21.2l8-24.8h49.1
    l8,24.8c0,0,6.1,18.3,24.6,21.2c19.9,3.1,64.6,4.8,81,2.9c13.6-1.6,28.7-1.9,33.8-16.4c1.7-4.7,5.5-26.7,9.6-44.6
    C456.9,246.6,447.3,233.5,432.8,231.3z"/>
</svg>
